<?xml version="1.0" encoding="utf-8"?>
<!-- Generator: Adobe Illustrator 23.0.1, SVG Export Plug-In . SVG Version: 6.00 Build 0)  -->
<svg version="1.1" id="Layer_1" xmlns="http://www.w3.org/2000/svg" xmlns:xlink="http://www.w3.org/1999/xlink" x="0px" y="0px"
   width="99" height="34"
	 viewBox="0 0 99 34" style="enable-background:new 0 0 99 34;" xml:space="preserve">
<style type="text/css">
	.st0{fill:#FFFFFF;}
	.st1{fill:#999A9A;}
	.st2{fill:#1C203D;}
	.st3{fill-rule:evenodd;clip-rule:evenodd;fill:url(#XMLID_6_);}
	.st4{fill-rule:evenodd;clip-rule:evenodd;fill:#FFFFFF;}
</style>
<g>
	<path class="st0" d="M5,33.5c-2.48,0-4.5-2.02-4.5-4.5V5.25c0-2.48,2.02-4.5,4.5-4.5h89c2.48,0,4.5,2.02,4.5,4.5V29
		c0,2.48-2.02,4.5-4.5,4.5H5z"/>
	<path class="st1" d="M94,1.25c2.21,0,4,1.79,4,4V29c0,2.21-1.79,4-4,4H5c-2.21,0-4-1.79-4-4V5.25c0-2.21,1.79-4,4-4H94 M94,0.25H5
		c-2.75,0-5,2.25-5,5V29c0,2.75,2.25,5,5,5h89c2.75,0,5-2.25,5-5V5.25C99,2.5,96.75,0.25,94,0.25L94,0.25z"/>
</g>
<title>spotify</title>
<desc>Created using Figma</desc>
<g>
	<path class="st2" d="M40.57,22.18c-0.63,0-1.2-0.11-1.71-0.32c-0.51-0.21-0.93-0.49-1.25-0.84c-0.33-0.35-0.6-0.77-0.82-1.25
		c-0.22-0.48-0.38-0.97-0.47-1.47c-0.1-0.5-0.14-1.02-0.14-1.56c0-0.64,0.08-1.27,0.24-1.88c0.16-0.61,0.4-1.19,0.73-1.73
		s0.79-0.98,1.38-1.32c0.59-0.33,1.27-0.5,2.04-0.5c0.93,0,1.71,0.22,2.34,0.65c0.63,0.44,1.07,0.96,1.32,1.58l-1.62,0.73
		c-0.28-0.43-0.57-0.75-0.88-0.94c-0.31-0.2-0.69-0.3-1.16-0.3c-0.46,0-0.86,0.11-1.21,0.34c-0.34,0.23-0.61,0.53-0.79,0.9
		s-0.32,0.77-0.4,1.18c-0.09,0.42-0.13,0.84-0.13,1.28c0,0.98,0.22,1.84,0.65,2.58s1.06,1.11,1.88,1.11c0.8,0,1.47-0.45,2.01-1.35
		l1.67,0.63C43.52,21.36,42.29,22.18,40.57,22.18z"/>
	<path class="st2" d="M50.14,22v-0.62c-0.51,0.53-1.19,0.8-2.04,0.8c-0.82,0-1.49-0.22-2-0.67c-0.52-0.44-0.77-1.07-0.77-1.88
		c0-0.83,0.29-1.46,0.88-1.89c0.58-0.43,1.29-0.65,2.12-0.65c0.73,0,1.33,0.13,1.82,0.4v-0.4c0-0.49-0.12-0.85-0.37-1.07
		c-0.25-0.22-0.62-0.33-1.13-0.33c-0.83,0-1.59,0.24-2.28,0.72L45.82,15c0.83-0.56,1.83-0.84,3-0.84c0.4,0,0.75,0.03,1.06,0.1
		c0.3,0.07,0.62,0.19,0.94,0.38c0.33,0.19,0.58,0.49,0.76,0.9s0.27,0.92,0.27,1.53V22H50.14z M48.43,20.63
		c0.67,0,1.24-0.24,1.71-0.73v-0.99c-0.44-0.21-0.95-0.31-1.53-0.31c-0.47,0-0.85,0.08-1.14,0.25s-0.44,0.43-0.44,0.78
		c0,0.31,0.12,0.56,0.36,0.74C47.64,20.54,47.98,20.63,48.43,20.63z"/>
	<path class="st2" d="M56.11,22.18c-0.62,0-1.2-0.12-1.75-0.36s-0.96-0.56-1.24-0.96l1.2-1.02c0.54,0.54,1.13,0.81,1.79,0.81
		c0.83,0,1.25-0.25,1.25-0.75c0-0.17-0.07-0.33-0.22-0.46c-0.15-0.14-0.3-0.25-0.46-0.32c-0.17-0.07-0.43-0.19-0.8-0.34
		c-0.88-0.29-1.52-0.62-1.93-1c-0.4-0.38-0.61-0.87-0.61-1.49c0-0.67,0.26-1.19,0.77-1.57c0.52-0.38,1.17-0.56,1.96-0.56
		c1.16,0,2.07,0.4,2.75,1.19l-1.22,0.99c-0.45-0.43-0.96-0.65-1.53-0.65c-0.69,0-1.04,0.21-1.04,0.63c0,0.21,0.13,0.39,0.38,0.54
		c0.25,0.15,0.63,0.31,1.12,0.46c0.83,0.28,1.46,0.61,1.88,0.99c0.42,0.38,0.64,0.91,0.64,1.59c0,0.73-0.26,1.29-0.79,1.69
		C57.73,21.98,57.01,22.18,56.11,22.18z"/>
	<path class="st2" d="M62.8,22.18c-1.19,0-1.79-0.66-1.79-1.97v-4.35h-1.14v-1.53h1.14v-2.33l1.75-0.84v3.17h1.77v1.53h-1.77v4
		c0,0.49,0.21,0.74,0.65,0.74c0.39,0,0.79-0.12,1.2-0.35l-0.21,1.58C63.97,22.07,63.43,22.18,62.8,22.18z"/>
	<path class="st2" d="M69.49,22.18c-0.72,0-1.29-0.26-1.7-0.77V22h-1.75V11.97l1.75-0.79v3.73c0.43-0.5,1-0.75,1.73-0.75
		c0.95,0,1.72,0.36,2.3,1.08c0.58,0.72,0.88,1.7,0.88,2.92c0,1.28-0.29,2.27-0.86,2.97C71.28,21.83,70.49,22.18,69.49,22.18z
		 M69.28,20.5c0.54,0,0.95-0.21,1.24-0.62s0.43-0.99,0.43-1.72c0-0.76-0.15-1.34-0.44-1.74c-0.29-0.4-0.7-0.6-1.23-0.6
		c-0.66,0-1.16,0.25-1.49,0.75v3.2C68.12,20.25,68.61,20.5,69.28,20.5z"/>
	<path class="st2" d="M77.41,22.18c-1.08,0-1.93-0.36-2.56-1.07s-0.95-1.69-0.95-2.94c0-1.25,0.32-2.23,0.95-2.95
		s1.48-1.07,2.56-1.07s1.94,0.36,2.57,1.07c0.64,0.71,0.95,1.7,0.95,2.95c0,1.25-0.32,2.23-0.95,2.94S78.5,22.18,77.41,22.18z
		 M77.41,20.5c0.55,0,0.98-0.21,1.3-0.62c0.31-0.41,0.47-0.98,0.47-1.71c0-0.73-0.16-1.3-0.47-1.72c-0.32-0.42-0.75-0.63-1.3-0.63
		c-0.53,0-0.96,0.21-1.27,0.64c-0.32,0.43-0.48,1-0.48,1.72c0,0.72,0.16,1.29,0.47,1.7S76.87,20.5,77.41,20.5z"/>
	<path class="st2" d="M81.46,22l2.66-3.99l-2.46-3.67h2.02l1.04,1.56c0.24,0.36,0.38,0.59,0.42,0.69c0.17-0.31,0.3-0.54,0.41-0.69
		l1.05-1.56h2.03l-2.48,3.67L88.81,22h-2.02l-1.25-1.86c-0.1-0.15-0.24-0.38-0.41-0.69c-0.07,0.16-0.21,0.39-0.42,0.69L83.49,22
		H81.46z"/>
</g>
<g id="Page-1">
	<g>
		
			<linearGradient id="XMLID_6_" gradientUnits="userSpaceOnUse" x1="-895.6724" y1="550.86" x2="-895.3135" y2="550.5461" gradientTransform="matrix(63.9263 0 0 -73.8557 57263.0195 40689.5703)">
			<stop  offset="0" style="stop-color:#FFB768"/>
			<stop  offset="0.1939" style="stop-color:#FF9953"/>
			<stop  offset="0.5655" style="stop-color:#FF652E"/>
			<stop  offset="0.8457" style="stop-color:#FF4518"/>
			<stop  offset="1" style="stop-color:#FF390F"/>
		</linearGradient>
		<path id="XMLID_4_" class="st3" d="M16.68,5.57l-8.5,5.03c-0.45,0.26-0.78,0.85-0.78,1.36v10.08c0,0.52,0.33,1.1,0.78,1.36
			l8.5,5.03c0.45,0.27,1.13,0.27,1.58,0l8.5-5.03c0.45-0.26,0.78-0.85,0.78-1.36V11.96c0-0.52-0.33-1.1-0.78-1.36l-8.5-5.03
			C17.8,5.3,17.13,5.3,16.68,5.57z"/>
		<path id="XMLID_3_" class="st4" d="M18.85,13.99c-0.38,0-0.69,0.29-0.69,0.65v1.59c0,0.2-0.19,0.36-0.41,0.36
			s-0.41-0.16-0.41-0.36v-2.16c0-0.36-0.31-0.66-0.69-0.66c-0.38,0-0.69,0.29-0.69,0.66v1.73c0,0.2-0.19,0.36-0.41,0.36
			c-0.23,0-0.41-0.16-0.41-0.36v-0.63c0-0.36-0.31-0.66-0.69-0.66c-0.38,0-0.69,0.29-0.69,0.66v1.48c0,0.2-0.19,0.36-0.41,0.36
			c-0.23,0-0.41-0.16-0.41-0.36v-0.17c0-0.38-0.31-0.69-0.69-0.69c-0.38,0-0.69,0.31-0.69,0.69v2.06c0,0.38,0.31,0.69,0.69,0.69
			c0.38,0,0.69-0.31,0.69-0.69v-0.17c0-0.2,0.19-0.36,0.41-0.36c0.23,0,0.41,0.16,0.41,0.36v2.35c0,0.36,0.31,0.66,0.69,0.66
			c0.38,0,0.69-0.29,0.69-0.66v-3.21c0-0.2,0.19-0.36,0.41-0.36c0.23,0,0.41,0.16,0.41,0.36v1.62c0,0.36,0.31,0.66,0.69,0.66
			c0.38,0,0.69-0.29,0.69-0.66v-1.19c0-0.2,0.19-0.36,0.41-0.36c0.23,0,0.41,0.16,0.41,0.36v1.27c0,0.36,0.31,0.66,0.69,0.66
			c0.38,0,0.69-0.29,0.69-0.66v-4.57C19.54,14.28,19.23,13.99,18.85,13.99"/>
		<path id="XMLID_2_" class="st4" d="M21.06,15.76c-0.38,0-0.69,0.29-0.69,0.66v2.61c0,0.36,0.31,0.66,0.69,0.66
			c0.38,0,0.69-0.29,0.69-0.66v-2.61C21.75,16.05,21.44,15.76,21.06,15.76"/>
		<path id="XMLID_1_" class="st4" d="M23.27,17.09c-0.38,0-0.69,0.29-0.69,0.66v0.65c0,0.36,0.31,0.66,0.69,0.66
			c0.38,0,0.69-0.29,0.69-0.66v-0.65C23.97,17.38,23.66,17.09,23.27,17.09"/>
	</g>
</g>
</svg>
